<svg width="20" height="20" viewBox="0 0 20 20" fill="none" xmlns="http://www.w3.org/2000/svg">
<g clip-path="url(#clip0_235_173)">
<path d="M18.9716 3.84971C18.5302 2.98132 17.7778 2.33929 16.8498 2.04043L11.0522 0.174763C10.1186 -0.125709 9.12453 -0.0403203 8.25533 0.41643C7.38614 0.87318 6.75217 1.64168 6.46942 2.58176L6.27689 3.22137H3.62419C1.62642 3.22218 0 4.8486 0 6.84718V15.7083C0 17.7069 1.62642 19.3333 3.625 19.3333H9.26389C10.5399 19.3333 11.6588 18.6671 12.3049 17.6674C12.4974 17.6988 12.6891 17.727 12.8792 17.727C14.4114 17.727 15.8163 16.7475 16.3157 15.2395L19.1811 6.62968C19.4872 5.70571 19.4131 4.7181 18.9716 3.84971ZM9.26389 18.5277H3.625C2.07028 18.5277 0.805556 17.263 0.805556 15.7083V6.84718C0.805556 5.29246 2.07028 4.02774 3.625 4.02774H9.26389C10.8186 4.02774 12.0833 5.29246 12.0833 6.84718V15.7083C12.0833 17.263 10.8186 18.5277 9.26389 18.5277ZM18.4158 6.37674L15.5504 14.9857C15.1396 16.2287 13.9409 16.9964 12.6698 16.9029C12.8019 16.5267 12.8881 16.1288 12.8881 15.7083V6.84718C12.8881 4.8486 11.2617 3.22218 9.26308 3.22218H7.11708L7.23953 2.81457C7.45944 2.08312 7.95325 1.4854 8.62911 1.13015C9.30497 0.774902 10.0799 0.708846 10.8041 0.942457L16.6017 2.80812C17.3235 3.04012 17.9091 3.53957 18.2523 4.21543C18.5954 4.89048 18.6534 5.65818 18.4158 6.37674Z" fill="#259800"/>
</g>
<defs>
<clipPath id="clip0_235_173">
<rect width="19.3333" height="19.3333" rx="2" fill="white"/>
</clipPath>
</defs>
</svg>
