<svg width="99" height="104" viewBox="0 0 99 104" fill="none" xmlns="http://www.w3.org/2000/svg">
<path d="M98.9959 47.4693C98.9959 40.7004 95.7 34.3734 90.3128 30.6249C90.3499 30.2046 90.3746 29.7799 90.3746 29.3509C90.3746 20.8875 85.1153 14.1186 78.0203 13.1262C76.6136 5.62923 70.29 0 62.9021 0C57.1807 0 52.173 3.2848 49.4959 8.15134C46.8187 3.28047 41.811 0 36.0896 0C28.7059 0 22.3864 5.6249 20.9797 13.1132C13.926 14.0623 8.62125 20.8529 8.62125 29.3466C8.62125 29.7799 8.646 30.2046 8.68313 30.6206C3.29175 34.3691 0 40.696 0 47.465C0 51.5211 1.15913 55.404 3.37425 58.7928C1.15913 62.1816 0 66.0644 0 70.1206C0 77.2362 3.59288 83.7928 9.438 87.4633C12.0038 97.2484 20.3692 104 30.096 104C38.6512 104 46.0556 98.7131 49.5 91.0861C52.9485 98.7131 60.3488 104 68.904 104C78.6266 104 86.9962 97.2484 89.562 87.4633C95.4071 83.7928 99 77.2362 99 70.1206C99 66.0644 97.8409 62.1816 95.6258 58.7928C97.8409 55.404 99 51.5211 99 47.465L98.9959 47.4693ZM30.0919 99.6708C21.9904 99.6708 15.0521 93.8639 13.2289 85.5522C13.0969 84.9412 12.7174 84.4255 12.1935 84.1265C7.21463 81.327 4.12087 75.9578 4.12087 70.1249C4.12087 66.5194 5.30475 63.0743 7.54462 60.1622C8.15512 59.3648 8.15512 58.2338 7.54462 57.4364C5.30475 54.5243 4.12087 51.0791 4.12087 47.4736C4.12087 41.7707 7.1115 36.4622 11.9254 33.6237C12.6926 33.173 13.101 32.2587 12.9443 31.353C12.8329 30.7029 12.7463 30.0399 12.7463 29.3552C12.7463 23.4486 16.4629 17.3427 22.7906 17.3427C23.8673 17.3427 24.7665 16.4717 24.8449 15.345C25.2986 9.17838 30.2445 4.34218 36.0938 4.34218C42.3514 4.34218 47.4375 9.6854 47.4375 16.2593V36.7309H36.8651C35.9452 32.9954 32.7113 30.2306 28.875 30.2306C24.3251 30.2306 20.625 34.1178 20.625 38.8976C20.625 43.6775 24.3251 47.5646 28.875 47.5646C32.7113 47.5646 35.9452 44.7999 36.8651 41.0644H47.4375V67.0655H36.8651C35.9452 63.33 32.7113 60.5652 28.875 60.5652C24.3251 60.5652 20.625 64.4524 20.625 69.2322C20.625 74.0121 24.3251 77.8993 28.875 77.8993C32.7113 77.8993 35.9452 75.1345 36.8651 71.399H47.4375V81.4571C47.4375 91.5021 39.6577 99.6795 30.096 99.6795L30.0919 99.6708ZM32.9959 38.889C32.9959 41.2767 31.1479 43.2225 28.8709 43.2225C26.5939 43.2225 24.7459 41.2767 24.7459 38.889C24.7459 36.5012 26.5939 34.5554 28.8709 34.5554C31.1479 34.5554 32.9959 36.5012 32.9959 38.889ZM32.9959 69.2235C32.9959 71.6113 31.1479 73.5571 28.8709 73.5571C26.5939 73.5571 24.7459 71.6113 24.7459 69.2235C24.7459 66.8358 26.5939 64.89 28.8709 64.89C31.1479 64.89 32.9959 66.8358 32.9959 69.2235ZM91.4471 60.1578C93.687 63.07 94.8709 66.5151 94.8709 70.1206C94.8709 75.9578 91.7771 81.3227 86.7982 84.1222C86.2744 84.4168 85.8949 84.9369 85.7629 85.5479C83.9396 93.8596 77.0014 99.6665 68.8999 99.6665C59.3381 99.6665 51.5584 91.4935 51.5584 81.4441V60.5522H61.8709C67.5592 60.5522 72.1834 55.69 72.1834 49.7184V47.2786C75.7391 46.3123 78.3709 42.9191 78.3709 38.8846C78.3709 34.1048 74.6708 30.2176 70.1209 30.2176C65.571 30.2176 61.8709 34.1048 61.8709 38.8846C61.8709 42.9148 64.5026 46.3123 68.0584 47.2786V49.7184C68.0584 53.3022 65.2822 56.2187 61.8709 56.2187H51.5584V16.2507C51.5584 9.67674 56.6445 4.33351 62.9021 4.33351C68.7514 4.33351 73.6931 9.16538 74.151 15.3363C74.2335 16.463 75.2359 17.3341 76.3084 17.3341C82.5289 17.3341 86.2455 23.4443 86.2455 29.3466C86.2455 30.0312 86.1589 30.6943 86.0475 31.3443C85.8908 32.25 86.3033 33.1644 87.0664 33.6151C91.8802 36.4535 94.8709 41.7621 94.8709 47.465C94.8709 51.0705 93.687 54.5156 91.4471 57.4277C90.8366 58.2251 90.8366 59.3561 91.4471 60.1535V60.1578ZM70.1209 43.2225C67.8439 43.2225 65.9959 41.2767 65.9959 38.889C65.9959 36.5012 67.8439 34.5554 70.1209 34.5554C72.3979 34.5554 74.2459 36.5012 74.2459 38.889C74.2459 41.2767 72.3979 43.2225 70.1209 43.2225Z" fill="#20B486"/>
</svg>
