<svg width="16" height="16" viewBox="0 0 16 16" fill="none" xmlns="http://www.w3.org/2000/svg">
<path d="M11.8763 12.7859L7.25446 8.275C7.18051 8.20598 7.12874 8.13449 7.09916 8.06054C7.06958 7.98659 7.05479 7.89785 7.05479 7.79432V1.16841H8.23799V6.88474L13.0891 4.10422L13.6881 5.13212L8.71867 7.9718L12.7711 11.9577L11.8763 12.7859ZM7.639 15.2781C6.59384 15.2781 5.61031 15.0784 4.6884 14.6791C3.76649 14.2847 2.95304 13.735 2.24805 13.03C1.54799 12.325 0.998297 11.5115 0.598967 10.5896C0.199638 9.66772 -2.70172e-05 8.68419 -2.70172e-05 7.63903C-2.70172e-05 6.59387 0.199638 5.61033 0.598967 4.68843C0.998297 3.76652 1.54799 2.95553 2.24805 2.25547C2.95304 1.55048 3.76402 0.998324 4.681 0.598995C5.60291 0.199665 6.58645 6.30971e-07 7.6316 6.30971e-07C8.68169 6.30971e-07 9.66769 0.199665 10.5896 0.598995C11.5115 0.998324 12.325 1.55048 13.0299 2.25547C13.7349 2.95553 14.2871 3.76652 14.6864 4.68843C15.0858 5.61033 15.2854 6.59387 15.2854 7.63903C15.2854 8.68419 15.0858 9.66772 14.6864 10.5896C14.2871 11.5115 13.7349 12.325 13.0299 13.03C12.325 13.735 11.5115 14.2847 10.5896 14.6791C9.66769 15.0784 8.68416 15.2781 7.639 15.2781ZM7.639 13.7695C8.49189 13.7695 9.28808 13.6117 10.0276 13.2962C10.7671 12.9807 11.4178 12.5419 11.9799 11.9799C12.5419 11.4179 12.9806 10.7671 13.2962 10.0276C13.6117 9.28811 13.7694 8.49192 13.7694 7.63903C13.7694 6.79107 13.6117 5.99734 13.2962 5.25784C12.9806 4.51341 12.5419 3.86019 11.9799 3.29817C11.4178 2.73615 10.7646 2.29738 10.0202 1.98186C9.28069 1.66634 8.48449 1.50858 7.6316 1.50858C6.78365 1.50858 5.98745 1.66634 5.24302 1.98186C4.50352 2.29738 3.85523 2.73615 3.29814 3.29817C2.74105 3.86019 2.30475 4.51341 1.98923 5.25784C1.67371 5.99734 1.51595 6.79107 1.51595 7.63903C1.51595 8.49192 1.67371 9.28811 1.98923 10.0276C2.30475 10.7671 2.74105 11.4179 3.29814 11.9799C3.86016 12.5419 4.51092 12.9807 5.25042 13.2962C5.99485 13.6117 6.79104 13.7695 7.639 13.7695Z" fill="#727272"/>
</svg>
