<svg width="18" height="18" viewBox="0 0 18 18" fill="none" xmlns="http://www.w3.org/2000/svg">
<path d="M6.74597 10.681H11.2433" stroke="#727272" stroke-width="1.34919" stroke-linecap="round" stroke-linejoin="round"/>
<path d="M6.74597 8.43237H11.2433" stroke="#727272" stroke-width="1.34919" stroke-linecap="round" stroke-linejoin="round"/>
<path d="M11.2434 2.81079H14.0541C14.2032 2.81079 14.3462 2.87002 14.4516 2.97544C14.557 3.08087 14.6162 3.22386 14.6162 3.37295V15.1784C14.6162 15.3275 14.557 15.4704 14.4516 15.5759C14.3462 15.6813 14.2032 15.7405 14.0541 15.7405H3.93515C3.78605 15.7405 3.64307 15.6813 3.53764 15.5759C3.43221 15.4704 3.37299 15.3275 3.37299 15.1784V3.37295C3.37299 3.22386 3.43221 3.08087 3.53764 2.97544C3.64307 2.87002 3.78605 2.81079 3.93515 2.81079H6.74581" stroke="#727272" stroke-width="1.34919" stroke-linecap="round" stroke-linejoin="round"/>
<path d="M6.18378 5.0595V4.49733C6.18378 3.75186 6.47991 3.03692 7.00704 2.50979C7.53417 1.98266 8.24911 1.68652 8.99459 1.68652C9.74006 1.68652 10.455 1.98266 10.9821 2.50979C11.5093 3.03692 11.8054 3.75186 11.8054 4.49733V5.0595H6.18378Z" stroke="#727272" stroke-width="1.34919" stroke-linecap="round" stroke-linejoin="round"/>
</svg>
