<svg width="18" height="18" viewBox="0 0 18 18" fill="none" xmlns="http://www.w3.org/2000/svg">
<path d="M14.6162 2.81079H3.37295C3.06248 2.81079 2.81079 3.06248 2.81079 3.37295V14.6162C2.81079 14.9267 3.06248 15.1784 3.37295 15.1784H14.6162C14.9267 15.1784 15.1784 14.9267 15.1784 14.6162V3.37295C15.1784 3.06248 14.9267 2.81079 14.6162 2.81079Z" stroke="#727272" stroke-width="1.34919" stroke-linecap="round" stroke-linejoin="round"/>
<path d="M12.3676 1.68646V3.93511" stroke="#727272" stroke-width="1.34919" stroke-linecap="round" stroke-linejoin="round"/>
<path d="M5.62164 1.68646V3.93511" stroke="#727272" stroke-width="1.34919" stroke-linecap="round" stroke-linejoin="round"/>
<path d="M2.81079 6.18378H15.1784" stroke="#727272" stroke-width="1.34919" stroke-linecap="round" stroke-linejoin="round"/>
<path d="M6.46484 8.99438H8.43241L7.30809 10.3998C7.49295 10.3998 7.67497 10.4454 7.83801 10.5325C8.00106 10.6196 8.1401 10.7456 8.24283 10.8993C8.34556 11.053 8.40881 11.2297 8.42697 11.4137C8.44514 11.5976 8.41765 11.7832 8.34696 11.9541C8.27627 12.1249 8.16454 12.2756 8.02168 12.393C7.87882 12.5103 7.70923 12.5906 7.52794 12.6267C7.34664 12.6629 7.15922 12.6538 6.98229 12.6002C6.80535 12.5466 6.64436 12.4503 6.51355 12.3196" stroke="#727272" stroke-width="1.34919" stroke-linecap="round" stroke-linejoin="round"/>
<path d="M10.1189 9.83763L11.2432 8.99438V12.6484" stroke="#727272" stroke-width="1.34919" stroke-linecap="round" stroke-linejoin="round"/>
</svg>
