<svg width="14" height="11" viewBox="0 0 14 11" fill="none" xmlns="http://www.w3.org/2000/svg">
<path d="M1.96802 10.9549C1.32555 10.9549 0.835961 10.7884 0.499246 10.4556C0.166401 10.1266 -2.18768e-05 9.64476 -2.18768e-05 9.01003V1.93321C-2.18768e-05 1.30235 0.160595 0.822433 0.481829 0.493459C0.803063 0.164484 1.24815 -3.24473e-06 1.81708 -3.24473e-06H3.44841C3.6574 -3.24473e-06 3.83737 0.0154779 3.98831 0.0464402C4.14312 0.0735323 4.28245 0.119976 4.4063 0.185771C4.53402 0.251566 4.66948 0.340582 4.81268 0.452821L5.12618 0.70826C5.29647 0.84372 5.45709 0.940477 5.60803 0.998532C5.75897 1.05272 5.94281 1.07981 6.15954 1.07981H11.4309C12.0695 1.07981 12.5552 1.24623 12.888 1.57907C13.2248 1.91192 13.3931 2.39571 13.3931 3.03043V9.01003C13.3931 9.64476 13.2306 10.1266 12.9055 10.4556C12.5842 10.7884 12.1333 10.9549 11.5528 10.9549H1.96802ZM2.07252 9.66605H11.3206C11.5721 9.66605 11.7657 9.60219 11.9011 9.47447C12.0366 9.34288 12.1043 9.14356 12.1043 8.87651V3.16976C12.1043 2.89884 12.0366 2.69952 11.9011 2.5718C11.7657 2.44021 11.5721 2.37442 11.3206 2.37442H5.81122C5.60222 2.37442 5.42032 2.36087 5.26551 2.33378C5.11457 2.30282 4.9733 2.25444 4.84171 2.18865C4.71399 2.12285 4.58047 2.03383 4.44114 1.9216L4.12764 1.66616C3.95735 1.52683 3.79673 1.43007 3.64579 1.37588C3.49872 1.31783 3.31875 1.2888 3.10589 1.2888H2.06671C1.81901 1.2888 1.62743 1.35653 1.49197 1.49199C1.35651 1.62358 1.28878 1.81323 1.28878 2.06093V8.87651C1.28878 9.14356 1.35458 9.34288 1.48617 9.47447C1.62163 9.60219 1.81708 9.66605 2.07252 9.66605ZM0.818544 4.60951V3.51228H12.592V4.60951H0.818544Z" fill="#727272"/>
</svg>
