<svg width="17" height="16" viewBox="0 0 17 16" fill="none" xmlns="http://www.w3.org/2000/svg">
<path d="M8.49126 8.42363C8.22482 8.42773 7.95018 8.39494 7.66734 8.32525C7.3886 8.25147 7.08117 8.13874 6.74504 7.98708L0.670176 5.20789C0.448825 5.11361 0.280762 4.97629 0.165987 4.79593C0.0553112 4.61147 -2.66558e-05 4.41676 -2.66558e-05 4.21181C-2.66558e-05 4.00685 0.0553112 3.8142 0.165987 3.63383C0.280762 3.45347 0.448825 3.31411 0.670176 3.21573L6.74504 0.436537C7.08117 0.28897 7.3886 0.180344 7.66734 0.110659C7.95018 0.0368753 8.22482 0.00203292 8.49126 0.00613202C8.7577 0.00203292 9.03234 0.0368753 9.31518 0.110659C9.59801 0.180344 9.9075 0.28897 10.2436 0.436537L16.3185 3.21573C16.5398 3.31411 16.7059 3.45347 16.8165 3.63383C16.9313 3.8142 16.9887 4.00685 16.9887 4.21181C16.9887 4.41676 16.9313 4.61147 16.8165 4.79593C16.7059 4.97629 16.5398 5.11361 16.3185 5.20789L10.2436 7.98708C9.9075 8.13874 9.59801 8.25147 9.31518 8.32525C9.03234 8.39494 8.7577 8.42773 8.49126 8.42363ZM8.49126 7.23694C8.68801 7.23694 8.88682 7.2103 9.08768 7.15701C9.29263 7.09962 9.52423 7.01354 9.78247 6.89877L15.2732 4.40242C15.3675 4.35733 15.4146 4.29379 15.4146 4.21181C15.4146 4.13392 15.3675 4.07244 15.2732 4.02735L9.78247 1.531C9.52423 1.41212 9.29263 1.32604 9.08768 1.27275C8.88682 1.21947 8.68801 1.19282 8.49126 1.19282C8.2945 1.19282 8.09569 1.21947 7.89484 1.27275C7.69398 1.32604 7.46443 1.41212 7.20619 1.531L1.71545 4.02735C1.62117 4.07244 1.57403 4.13392 1.57403 4.21181C1.57403 4.29379 1.62117 4.35733 1.71545 4.40242L7.20619 6.89877C7.46443 7.01354 7.69398 7.09962 7.89484 7.15701C8.09569 7.2103 8.2945 7.23694 8.49126 7.23694ZM2.41639 8.78025V5.56451H3.59078V8.78025C3.59078 9.09179 3.70556 9.39307 3.93511 9.68411C4.16876 9.97104 4.50078 10.2272 4.93119 10.4527C5.3616 10.674 5.87808 10.8503 6.48065 10.9815C7.08322 11.1167 7.75342 11.1844 8.49126 11.1844C9.23319 11.1844 9.9034 11.1167 10.5019 10.9815C11.1044 10.8503 11.6209 10.674 12.0513 10.4527C12.4858 10.2272 12.8179 9.97104 13.0474 9.68411C13.2811 9.39307 13.3979 9.09179 13.3979 8.78025V5.56451H14.5723V8.78025C14.5723 9.26805 14.4247 9.7251 14.1296 10.1514C13.8385 10.5736 13.4245 10.9446 12.8875 11.2643C12.3506 11.5881 11.7091 11.8402 10.963 12.0206C10.217 12.201 9.39306 12.2911 8.49126 12.2911C7.58946 12.2911 6.76554 12.201 6.0195 12.0206C5.27756 11.8402 4.63605 11.5881 4.09497 11.2643C3.55799 10.9446 3.14398 10.5736 2.85295 10.1514C2.56191 9.7251 2.41639 9.26805 2.41639 8.78025ZM8.5097 4.99269C8.28015 4.99269 8.0588 4.95989 7.84565 4.89431C7.6366 4.82462 7.46443 4.73239 7.32916 4.61762C7.19799 4.49874 7.13241 4.36347 7.13241 4.21181C7.13241 4.06424 7.19799 3.93307 7.32916 3.81829C7.46443 3.70352 7.6366 3.61334 7.84565 3.54775C8.0588 3.48217 8.28015 3.44938 8.5097 3.44938C8.74335 3.44938 8.9647 3.48217 9.17376 3.54775C9.38691 3.61334 9.55907 3.70352 9.69024 3.81829C9.82142 3.93307 9.887 4.06424 9.887 4.21181C9.887 4.36347 9.82142 4.49874 9.69024 4.61762C9.55907 4.73239 9.38896 4.82462 9.17991 4.89431C8.97085 4.95989 8.74745 4.99269 8.5097 4.99269ZM4.93119 6.48681L4.02734 6.00721L7.98092 3.95971L8.38673 4.67296L4.93119 6.48681ZM4.02734 12.494V6.03181L4.93119 6.48681V12.5002L4.02734 12.494ZM3.48626 12.6416C3.48626 12.3834 3.56414 12.1743 3.71991 12.0144C3.87977 11.8587 4.09087 11.7808 4.35322 11.7808H4.59916C4.85741 11.7808 5.06441 11.8587 5.22018 12.0144C5.38004 12.1743 5.45997 12.3834 5.45997 12.6416V14.2894C5.45997 14.5518 5.38004 14.7608 5.22018 14.9166C5.06441 15.0765 4.85741 15.1564 4.59916 15.1564H4.35322C4.09087 15.1564 3.87977 15.0765 3.71991 14.9166C3.56414 14.7608 3.48626 14.5518 3.48626 14.2894V12.6416Z" fill="#727272"/>
</svg>
