<svg width="17" height="16" viewBox="0 0 17 16" fill="none" xmlns="http://www.w3.org/2000/svg">
<path d="M8.5 0C3.81296 0 0 3.58867 0 8C0 12.4113 3.81296 16 8.5 16C13.187 16 17 12.4113 17 8C17 3.58867 13.187 0 8.5 0ZM4.95833 14.5313V14C4.95833 12.162 6.54712 10.6667 8.5 10.6667C10.4529 10.6667 12.0417 12.162 12.0417 14V14.5313C10.9785 15.044 9.77429 15.3333 8.5 15.3333C7.22571 15.3333 6.02154 15.044 4.95833 14.5313ZM12.75 14.1433V14C12.75 11.794 10.8439 10 8.5 10C6.15612 10 4.25 11.794 4.25 14V14.1433C2.11933 12.8333 0.708333 10.5687 0.708333 8C0.708333 3.95667 4.20396 0.666667 8.5 0.666667C12.796 0.666667 16.2917 3.95667 16.2917 8C16.2917 10.5687 14.8807 12.8333 12.75 14.1433ZM8.5 3.33333C6.93742 3.33333 5.66667 4.52933 5.66667 6C5.66667 7.47067 6.93742 8.66667 8.5 8.66667C10.0626 8.66667 11.3333 7.47067 11.3333 6C11.3333 4.52933 10.0626 3.33333 8.5 3.33333ZM8.5 8C7.32842 8 6.375 7.10267 6.375 6C6.375 4.89733 7.32842 4 8.5 4C9.67158 4 10.625 4.89733 10.625 6C10.625 7.10267 9.67158 8 8.5 8Z" fill="#727272"/>
</svg>
